<svg width="20" height="20" viewBox="0 0 20 20" fill="none" xmlns="http://www.w3.org/2000/svg">
<circle cx="10" cy="10" r="10" fill="#FF7B1B"/>
<path fill-rule="evenodd" clip-rule="evenodd" d="M12.57 7.37006C12.71 7.23133 12.8989 7.15326 13.096 7.15271C13.293 7.15217 13.4824 7.2292 13.6231 7.36716C13.7638 7.50511 13.8446 7.6929 13.8479 7.88993C13.8513 8.08696 13.777 8.27739 13.641 8.42006L9.64904 13.4101C9.58043 13.484 9.49763 13.5433 9.40557 13.5844C9.31352 13.6256 9.21411 13.6478 9.11329 13.6496C9.01247 13.6515 8.91231 13.633 8.8188 13.5953C8.72529 13.5576 8.64034 13.5014 8.56904 13.4301L5.92404 10.7841C5.85035 10.7154 5.79125 10.6326 5.75026 10.5406C5.70927 10.4486 5.68723 10.3493 5.68545 10.2486C5.68367 10.1479 5.7022 10.0479 5.73992 9.95446C5.77764 9.86107 5.83378 9.77624 5.905 9.70502C5.97622 9.6338 6.06106 9.57766 6.15444 9.53994C6.24783 9.50222 6.34786 9.48369 6.44856 9.48547C6.54927 9.48725 6.64858 9.50929 6.74058 9.55028C6.83258 9.59127 6.91538 9.65037 6.98404 9.72406L9.07804 11.8171L12.551 7.39206C12.5572 7.38431 12.5639 7.37697 12.571 7.37006H12.57Z" fill="white"/>
</svg>
