<svg width="25" height="25" viewBox="0 0 25 25" fill="none" xmlns="http://www.w3.org/2000/svg">
<circle cx="12.5" cy="12.5" r="12.5" fill="#FF7B1B"/>
<path fill-rule="evenodd" clip-rule="evenodd" d="M15.7126 9.21261C15.8875 9.0392 16.1237 8.9416 16.37 8.94092C16.6163 8.94024 16.853 9.03653 17.0289 9.20897C17.2048 9.38142 17.3057 9.61616 17.3099 9.86244C17.3141 10.1087 17.2212 10.3468 17.0513 10.5251L12.0613 16.7626C11.9756 16.855 11.8721 16.9291 11.757 16.9806C11.6419 17.032 11.5177 17.0597 11.3916 17.0621C11.2656 17.0644 11.1404 17.0413 11.0235 16.9941C10.9066 16.947 10.8004 16.8767 10.7113 16.7876L7.40507 13.4801C7.31297 13.3943 7.23909 13.2908 7.18785 13.1758C7.13661 13.0608 7.10906 12.9366 7.10684 12.8108C7.10461 12.6849 7.12777 12.5598 7.17492 12.4431C7.22207 12.3264 7.29225 12.2203 7.38128 12.1313C7.4703 12.0423 7.57634 11.9721 7.69308 11.925C7.80981 11.8778 7.93485 11.8546 8.06073 11.8569C8.18661 11.8591 8.31075 11.8866 8.42575 11.9379C8.54075 11.9891 8.64425 12.063 8.73007 12.1551L11.3476 14.7714L15.6888 9.24011C15.6966 9.23042 15.7049 9.22124 15.7138 9.21261H15.7126Z" fill="white"/>
</svg>
