<svg width="16" height="16" viewBox="0 0 16 16" fill="none" xmlns="http://www.w3.org/2000/svg">
<path fill-rule="evenodd" clip-rule="evenodd" d="M10.97 4.96979C11.11 4.83106 11.2989 4.75299 11.496 4.75244C11.693 4.7519 11.8824 4.82893 12.0231 4.96689C12.1638 5.10484 12.2446 5.29263 12.2479 5.48966C12.2513 5.68669 12.177 5.87712 12.041 6.01979L8.04904 11.0098C7.98043 11.0837 7.89762 11.143 7.80557 11.1842C7.71352 11.2253 7.61411 11.2475 7.51329 11.2494C7.41247 11.2512 7.31231 11.2328 7.21879 11.195C7.12528 11.1573 7.04033 11.1011 6.96904 11.0298L4.32404 8.38379C4.25035 8.31513 4.19125 8.23233 4.15025 8.14033C4.10926 8.04833 4.08722 7.94902 4.08544 7.84831C4.08367 7.74761 4.10219 7.64758 4.13991 7.55419C4.17763 7.46081 4.23378 7.37597 4.305 7.30475C4.37622 7.23354 4.46105 7.17739 4.55444 7.13967C4.64783 7.10195 4.74786 7.08342 4.84856 7.0852C4.94926 7.08698 5.04857 7.10902 5.14057 7.15001C5.23257 7.191 5.31537 7.25011 5.38404 7.32379L7.47804 9.41679L10.951 4.99179C10.9572 4.98405 10.9639 4.9767 10.971 4.96979H10.97Z" fill="#7379F8"/>
</svg>
