<svg width="16" height="16" viewBox="0 0 16 16" fill="none" xmlns="http://www.w3.org/2000/svg">
<path fill-rule="evenodd" clip-rule="evenodd" d="M10.9699 4.96979C11.1099 4.83106 11.2988 4.75299 11.4958 4.75244C11.6929 4.7519 11.8823 4.82893 12.023 4.96689C12.1637 5.10484 12.2444 5.29263 12.2478 5.48966C12.2512 5.68669 12.1768 5.87712 12.0409 6.01979L8.04891 11.0098C7.9803 11.0837 7.8975 11.143 7.80545 11.1842C7.71339 11.2253 7.61399 11.2475 7.51316 11.2494C7.41234 11.2512 7.31218 11.2328 7.21867 11.195C7.12516 11.1573 7.04021 11.1011 6.96891 11.0298L4.32391 8.38379C4.25023 8.31513 4.19112 8.23233 4.15013 8.14033C4.10914 8.04833 4.0871 7.94902 4.08532 7.84831C4.08355 7.74761 4.10207 7.64758 4.13979 7.55419C4.17751 7.46081 4.23366 7.37597 4.30488 7.30475C4.37609 7.23354 4.46093 7.17739 4.55432 7.13967C4.6477 7.10195 4.74773 7.08342 4.84844 7.0852C4.94914 7.08698 5.04845 7.10902 5.14045 7.15001C5.23245 7.191 5.31525 7.25011 5.38391 7.32379L7.47791 9.41679L10.9509 4.99179C10.9571 4.98405 10.9638 4.9767 10.9709 4.96979H10.9699Z" fill="#FF7B1B"/>
</svg>
