<svg width="45" height="45" viewBox="0 0 45 45" fill="none" xmlns="http://www.w3.org/2000/svg">
<path d="M33.2568 28.9858L27.581 27.7243V25.9308C29.6989 24.4023 31.1011 21.9498 31.1948 19.1663C33.0739 17.1827 34.1133 14.6045 34.1133 11.8618V8.70971C34.1133 6.87192 32.7393 5.34782 30.9647 5.11266C29.4426 1.99234 26.2781 0 22.779 0H21.5566C19.1962 0 16.8693 0.798371 15.0062 2.24788C12.389 4.28293 10.8874 7.35387 10.8874 10.67V11.8618C10.8874 14.6045 11.9268 17.1827 13.8058 19.1663C13.9002 21.9498 15.3017 24.4023 17.4196 25.9308V27.7243L11.7439 28.985C7.39338 29.9526 4.3551 33.7391 4.3551 38.1963V45H40.6454V38.1963C40.6454 33.7391 37.6072 29.9526 33.2568 28.9858ZM13.7907 13.0645V16.8118C12.8492 15.3471 12.3391 13.6444 12.3391 11.8618V10.67C12.3391 7.8046 13.6361 5.15172 15.8977 3.39311C17.5083 2.14114 19.518 1.4516 21.5575 1.4516H22.7798C25.8471 1.4516 28.6095 3.27331 29.8179 6.09237L30.005 6.53225H30.4841C31.6846 6.53225 32.6614 7.50921 32.6614 8.70971V11.8619C32.6614 13.6444 32.1511 15.3473 31.2098 16.8119V13.0645C31.2098 10.6628 29.2567 8.70971 26.855 8.70971H18.1455C15.7437 8.70971 13.7907 10.6628 13.7907 13.0645ZM15.2421 18.8709V13.0645C15.2421 11.4633 16.5443 10.1613 18.1453 10.1613H26.855C28.4562 10.1613 29.7582 11.4634 29.7582 13.0645V18.8709C29.7582 22.8729 26.5023 26.129 22.5001 26.129C18.4981 26.129 15.2421 22.8731 15.2421 18.8709ZM26.1292 26.7786V28.0654L22.5001 32.9036L18.8711 28.0654V26.7786C19.9772 27.2881 21.2039 27.5806 22.5001 27.5806C23.7964 27.5806 25.0231 27.2881 26.1292 26.7786ZM17.9567 29.2645L22.5002 35.3227L27.0437 29.2645L28.8604 37.7419H16.1399L17.9567 29.2645ZM11.6132 43.5483H5.8067V38.1963C5.8067 34.4257 8.37753 31.2206 12.0588 30.4033L16.4369 29.43L14.589 38.0503L11.6132 40.2822V43.5483ZM31.9357 43.5483H13.0647V41.008L15.484 39.1935H29.516L31.9358 41.008V43.5483H31.9357ZM39.1937 43.5483H33.3873V40.2822L30.4115 38.0503L28.5643 29.43L32.9423 30.4033C36.6228 31.2206 39.1937 34.4257 39.1937 38.1963V43.5483Z" fill="#7379F8"/>
<path d="M25.4032 22.4999V21.774C25.4032 21.3727 25.078 21.0482 24.6773 21.0482H20.3225C19.9219 21.0482 19.5967 21.3726 19.5967 21.774V22.4999H20.3225H24.6773H25.4032Z" fill="#7379F8"/>
</svg>
