<svg width="45" height="45" viewBox="0 0 45 45" fill="none" xmlns="http://www.w3.org/2000/svg">
<path d="M44.25 39C44.6642 39 45 38.6642 45 38.25V35.25C45 34.8358 44.6642 34.5 44.25 34.5H39.75V18.75C39.75 18.3358 39.4142 18 39 18H35.25V8.25C35.25 7.83582 34.9142 7.5 34.5 7.5H27.75V0.75C27.75 0.335815 27.4142 0 27 0H18C17.5858 0 17.25 0.335815 17.25 0.75V7.5H10.5C10.0858 7.5 9.75 7.83582 9.75 8.25V18H6C5.58582 18 5.25 18.3358 5.25 18.75V34.5H0.75C0.335815 34.5 0 34.8358 0 35.25V38.25C0 38.6642 0.335815 39 0.75 39H1.5V40.5H0.75C0.335815 40.5 0 40.8358 0 41.25V44.25C0 44.6642 0.335815 45 0.75 45H44.25C44.6642 45 45 44.6642 45 44.25V41.25C45 40.8358 44.6642 40.5 44.25 40.5H43.5V39H44.25ZM38.25 34.5H23.25V19.5H27.75V24.75C27.75 25.1642 28.0858 25.5 28.5 25.5H33C33.4142 25.5 33.75 25.1642 33.75 24.75V19.5H38.25V34.5ZM29.25 19.5H32.25V24H29.25V19.5ZM33.75 18H23.25V9H26.25V12.75C26.25 13.1642 26.5858 13.5 27 13.5H30C30.4142 13.5 30.75 13.1642 30.75 12.75V9H33.75V18ZM27.75 9H29.25V12H27.75V9ZM21.75 1.5H23.25V3H21.75V1.5ZM18.75 1.5H20.25V3.75C20.25 4.16418 20.5858 4.5 21 4.5H24C24.4142 4.5 24.75 4.16418 24.75 3.75V1.5H26.25V7.5H18.75V1.5ZM15.75 9H17.25V12H15.75V9ZM11.25 9H14.25V12.75C14.25 13.1642 14.5858 13.5 15 13.5H18C18.4142 13.5 18.75 13.1642 18.75 12.75V9H21.75V18H11.25V9ZM12.75 19.5H15.75V24H12.75V19.5ZM6.75 19.5H11.25V24.75C11.25 25.1642 11.5858 25.5 12 25.5H16.5C16.9142 25.5 17.25 25.1642 17.25 24.75V19.5H21.75V34.5H6.75V19.5ZM1.5 36H43.5V37.5H1.5V36ZM6 40.5V39H39V40.5H6ZM3 39H4.5V40.5H3V39ZM43.5 43.5H1.5V42H43.5V43.5ZM42 40.5H40.5V39H42V40.5Z" fill="#7379F8"/>
</svg>
