<svg width="45" height="45" viewBox="0 0 45 45" fill="none" xmlns="http://www.w3.org/2000/svg">
<g clip-path="url(#clip0_1_1323)">
<path d="M44.8996 30.9187C44.5874 29.7811 43.6336 28.9346 42.4669 28.7596V11.6598H43.957C44.3685 11.6598 44.702 11.3262 44.702 10.9148V3.46446C44.702 3.05265 44.3685 2.71942 43.957 2.71942H11.1755C10.7641 2.71942 10.4305 3.05265 10.4305 3.46446V10.9148C10.4305 11.3262 10.7641 11.6598 11.1755 11.6598H12.6656V26.5605H11.9205C10.0714 26.5561 8.26013 27.0862 6.70531 28.087V24.3254C6.70531 23.9136 6.37171 23.5804 5.96027 23.5804H0.745034C0.333592 23.5804 0 23.9136 0 24.3254V41.4612C0 41.8726 0.333592 42.2062 0.745034 42.2062H5.96027C6.37171 42.2062 6.70531 41.8726 6.70531 41.4612V37.7C8.26049 38.7001 10.0714 39.2301 11.9205 39.2261H24.1539C25.0016 39.2246 25.8452 39.1133 26.6641 38.895L42.7947 34.574C44.3819 34.1415 45.3223 32.5088 44.8996 30.9187ZM11.9205 4.20949H43.212V10.1698H11.9205V4.20949ZM14.1556 11.6598H40.9769V28.8877L32.33 31.2064C31.9739 30.3573 31.2474 29.7196 30.3594 29.4763L20.3207 26.7839C19.7554 26.6351 19.1733 26.5598 18.5887 26.5605H14.1556V11.6598ZM5.21524 40.7162H1.49007V25.0704H5.21524V40.7162ZM42.408 33.1345L26.2803 37.4555C25.5865 37.6407 24.8721 37.7349 24.1539 37.736H11.9205C10.1467 37.74 8.41983 37.1645 7.00325 36.0968L6.70531 35.8734V29.9132L7.00325 29.6894C8.41983 28.6217 10.1467 28.0458 11.9205 28.0506H18.5887C19.0438 28.0502 19.4975 28.1091 19.938 28.2256L29.9734 30.9158C30.5664 31.0791 31.0004 31.5873 31.0681 32.1988C31.0761 32.2294 31.0859 32.2596 31.0979 32.2891C31.0892 32.3211 31.0826 32.3534 31.0783 32.3865C31.079 32.5077 31.0626 32.6285 31.0291 32.7449C30.8538 33.3942 30.2656 33.8457 29.5929 33.8468C29.4616 33.8479 29.3314 33.8311 29.2048 33.7977L22.872 32.0995C22.6122 32.0224 22.331 32.0922 22.1375 32.2821C21.9443 32.472 21.869 32.7518 21.9414 33.013C22.0138 33.2738 22.2222 33.4754 22.486 33.5383L28.8188 35.2372C29.0716 35.3037 29.3324 35.3372 29.5944 35.3369C30.9338 35.3361 32.1078 34.4401 32.4617 33.148C32.5032 32.9984 32.5312 32.8456 32.5461 32.6914L41.6288 30.2558C41.6935 30.2395 41.7637 30.2227 41.83 30.2118C42.5717 30.1162 43.2691 30.5851 43.4608 31.3076C43.4943 31.4334 43.511 31.5633 43.5099 31.6935C43.511 32.368 43.0592 32.9588 42.408 33.1345Z" fill="#7379F8"/>
<path d="M23.8412 14.6402H31.2915C31.7029 14.6402 32.0365 14.3066 32.0365 13.8952C32.0365 13.4833 31.7029 13.1501 31.2915 13.1501H23.8412C23.4297 13.1501 23.0961 13.4833 23.0961 13.8952C23.0961 14.3066 23.4297 14.6402 23.8412 14.6402Z" fill="#7379F8"/>
</g>
<defs>
<clipPath id="clip0_1_1323">
<rect width="45" height="45" fill="white"/>
</clipPath>
</defs>
</svg>
