<svg width="45" height="45" viewBox="0 0 45 45" fill="none" xmlns="http://www.w3.org/2000/svg">
<path d="M23.3756 19.6875H21.4596L20.4914 23.1996L16.5911 23.2059L15.9281 24.8653L19.3474 27.1139L17.7682 30.7477L19.2208 31.8298L22.4186 29.2015L25.6158 31.8298L27.0691 30.7477L25.4899 27.1139L28.9099 24.8646L28.2433 23.2038L24.3593 23.2031L23.3756 19.6875ZM23.7286 26.5894L24.9928 29.4975L22.4194 27.3818L19.8459 29.4968L21.1087 26.5894L18.0986 24.6094L21.5629 24.6045L22.4208 21.4945L23.2919 24.6094L26.7387 24.6101L23.7286 26.5894Z" fill="#7379F8"/>
<path d="M22.5 16.875C17.46 16.875 13.3594 20.9756 13.3594 26.0156C13.3594 31.0556 17.46 35.1562 22.5 35.1562C27.54 35.1562 31.6406 31.0556 31.6406 26.0156C31.6406 20.9756 27.54 16.875 22.5 16.875ZM22.5 33.75C18.2355 33.75 14.7656 30.2801 14.7656 26.0156C14.7656 21.7512 18.2355 18.2812 22.5 18.2812C26.7645 18.2812 30.2344 21.7512 30.2344 26.0156C30.2344 30.2801 26.7645 33.75 22.5 33.75Z" fill="#7379F8"/>
<path d="M13.3594 10.5469H14.7656V11.9531H13.3594V10.5469Z" fill="#7379F8"/>
<path d="M13.3594 16.1719H14.7656V17.5781H13.3594V16.1719Z" fill="#7379F8"/>
<path d="M13.3594 13.3594H14.7656V14.7656H13.3594V13.3594Z" fill="#7379F8"/>
<path d="M30.2344 37.2656H31.6406V38.6719H30.2344V37.2656Z" fill="#7379F8"/>
<path d="M30.2344 34.4531H31.6406V35.8594H30.2344V34.4531Z" fill="#7379F8"/>
<path d="M30.2344 31.6406H31.6406V33.0469H30.2344V31.6406Z" fill="#7379F8"/>
<path d="M44.2969 8.4375C44.2969 5.28328 39.3553 2.8125 33.0469 2.8125C31.7974 2.8125 30.5796 2.91516 29.4145 3.10781L27.0098 0.703125H17.9902L10.5469 8.14641V44.2969H34.4531V14.0161C40.0725 13.6793 44.2969 11.3527 44.2969 8.4375ZM18.5723 2.10938H26.4277L32.0527 7.73438H25.9446C25.6177 6.13195 24.1973 4.92188 22.5 4.92188C20.8027 4.92188 19.3823 6.13195 19.0554 7.73438H12.9473L18.5723 2.10938ZM23.2031 8.4375C23.2031 7.83281 23.547 7.30547 23.9365 6.90188C24.3485 7.28719 24.6094 7.8307 24.6094 8.4375C24.6094 9.03797 24.3541 9.57727 23.9505 9.96187C23.4661 9.46547 23.2031 8.94445 23.2031 8.4375ZM22.5893 10.5377C22.5591 10.5391 22.5302 10.5469 22.5 10.5469C21.337 10.5469 20.3906 9.60047 20.3906 8.4375C20.3906 7.27453 21.337 6.32812 22.5 6.32812C22.526 6.32812 22.5499 6.33516 22.5759 6.33586C22.0669 6.99328 21.7969 7.70484 21.7969 8.4375C21.7969 9.18422 22.0823 9.89156 22.5893 10.5377ZM25.9446 9.14062H33.0469V12.6562C29.6079 12.6562 26.7961 11.8723 25.0685 10.8204C25.4995 10.357 25.8138 9.78328 25.9446 9.14062ZM33.0469 40.0781H14.7656V41.4844H33.0469V42.8906H11.9531V41.4844H13.3594V40.0781H11.9531V9.14062H19.0554C19.3823 10.743 20.802 11.9531 22.5 11.9531C22.9683 11.9531 23.4134 11.8575 23.8226 11.6902C25.8391 13.133 29.1839 14.0625 33.0469 14.0625V40.0781ZM34.4531 12.6063V8.14641L30.6612 4.35445C31.4381 4.26797 32.2341 4.21875 33.0469 4.21875C38.8477 4.21875 42.8906 6.44203 42.8906 8.4375C42.8906 10.267 39.4882 12.2822 34.4531 12.6063Z" fill="#7379F8"/>
</svg>
