<svg width="15" height="15" viewBox="0 0 15 15" fill="none" xmlns="http://www.w3.org/2000/svg">
<path d="M0.639893 0.100109H6.99989C8.38502 0.0854549 9.75453 0.393594 10.9999 1.00011C12.1232 1.53838 13.0675 2.38899 13.7199 3.45011C14.3948 4.55739 14.7416 5.83352 14.7199 7.13011C14.7416 8.4267 14.3948 9.70283 13.7199 10.8101C13.0631 11.8601 12.1192 12.7 10.9999 13.2301C9.75203 13.8263 8.38264 14.1241 6.99989 14.1001H0.639893V0.100109ZM6.83989 11.4401C8.06654 11.5028 9.269 11.0829 10.1899 10.2701C10.6128 9.86185 10.9433 9.36761 11.1589 8.82076C11.3745 8.2739 11.4704 7.68715 11.4399 7.10011C11.4704 6.51306 11.3745 5.92632 11.1589 5.37946C10.9433 4.83261 10.6128 4.33837 10.1899 3.93011C9.269 3.11736 8.06654 2.6974 6.83989 2.76011H3.83989V11.4401H6.83989Z" fill="#F57706"/>
</svg>
