<svg width="165" height="20" viewBox="0 0 165 20" fill="none" xmlns="http://www.w3.org/2000/svg">
<path d="M27.5801 11.5998H19.4401C19.5641 12.2329 19.9209 12.7967 20.4401 13.1798C21.0308 13.5751 21.7295 13.7777 22.4401 13.7598C22.9715 13.781 23.5019 13.696 24.0001 13.5098C24.4532 13.3319 24.865 13.0631 25.2101 12.7198L26.8701 14.5198C26.305 15.1204 25.6135 15.588 24.8457 15.889C24.0779 16.1899 23.2528 16.3165 22.4301 16.2598C21.3159 16.2791 20.2128 16.0358 19.2101 15.5498C18.3131 15.1041 17.5633 14.4098 17.0501 13.5498C16.5392 12.6842 16.2763 11.6948 16.2901 10.6898C16.2772 9.68935 16.5364 8.70424 17.0401 7.83977C17.5267 6.99398 18.2403 6.3012 19.1001 5.83977C19.9975 5.38387 20.9937 5.15713 22.0001 5.17977C22.995 5.16577 23.9779 5.39945 24.8601 5.85977C25.7039 6.29908 26.3995 6.97733 26.8601 7.80977C27.3705 8.72526 27.6228 9.76213 27.5901 10.8098C27.5901 10.8098 27.6201 11.0798 27.5801 11.5998ZM20.2801 8.13977C19.7929 8.5579 19.4791 9.14265 19.4001 9.77977H24.7001C24.6205 9.14563 24.3066 8.5642 23.8201 8.14977C23.3289 7.73605 22.7019 7.51876 22.0601 7.53977C21.414 7.52027 20.7825 7.73317 20.2801 8.13977Z" fill="#201600"/>
<path d="M36.6599 15.58C36.3229 15.8268 35.938 16.0005 35.5299 16.09C35.0687 16.2043 34.5951 16.2614 34.1199 16.26C33.0278 16.3302 31.9515 15.9714 31.1199 15.26C30.7604 14.8771 30.4855 14.4227 30.3132 13.9265C30.1409 13.4303 30.075 12.9034 30.1199 12.38V8H28.4399V5.58H30.0999V3H33.2199V5.58H35.8999V8H33.2199V12.38C33.1985 12.7618 33.3237 13.1374 33.5699 13.43C33.701 13.5589 33.8579 13.6585 34.0303 13.7222C34.2026 13.786 34.3866 13.8125 34.5699 13.8C35.0231 13.8133 35.4674 13.6723 35.8299 13.4L36.6599 15.58Z" fill="#201600"/>
<path d="M38.6399 2.10011H44.9999C46.385 2.08545 47.7545 2.39359 48.9999 3.00011C50.1232 3.53838 51.0675 4.38899 51.7199 5.45011C52.3948 6.55739 52.7416 7.83352 52.7199 9.13011C52.7416 10.4267 52.3948 11.7028 51.7199 12.8101C51.0631 13.8601 50.1192 14.7 48.9999 15.2301C47.752 15.8263 46.3826 16.1241 44.9999 16.1001H38.6399V2.10011ZM44.8399 13.4401C46.0665 13.5028 47.269 13.0829 48.1899 12.2701C48.6128 11.8618 48.9433 11.3676 49.1589 10.8208C49.3745 10.2739 49.4704 9.68715 49.4399 9.10011C49.4704 8.51306 49.3745 7.92632 49.1589 7.37946C48.9433 6.83261 48.6128 6.33837 48.1899 5.93011C47.269 5.11736 46.0665 4.6974 44.8399 4.76011H41.8399V13.4401H44.8399Z" fill="#F57706"/>
<path d="M63.12 6.36989C63.5976 6.83846 63.9654 7.40698 64.1971 8.03462C64.4288 8.66226 64.5186 9.33342 64.46 9.99989V16.0999H61.54V14.7599C61.1833 15.2865 60.6887 15.705 60.1102 15.9695C59.5318 16.2341 58.8917 16.3345 58.26 16.2599C57.5215 16.2766 56.788 16.1334 56.11 15.8399C55.5468 15.5918 55.065 15.1897 54.72 14.6799C54.3969 14.1799 54.2298 13.5951 54.24 12.9999C54.2228 12.5444 54.3167 12.0915 54.5136 11.6803C54.7104 11.2692 55.0044 10.9121 55.37 10.6399C56.4129 9.99089 57.635 9.68976 58.86 9.77989H61.34C61.3574 9.48882 61.3109 9.19748 61.2038 8.92628C61.0967 8.65507 60.9316 8.41057 60.72 8.20989C60.1896 7.8025 59.5268 7.60651 58.86 7.65989C58.286 7.66083 57.7158 7.75194 57.17 7.92989C56.6602 8.08713 56.1827 8.33437 55.76 8.65989L54.64 6.47989C55.2824 6.03078 55.9957 5.69274 56.75 5.47989C57.5739 5.25155 58.4251 5.13715 59.28 5.13989C60.6684 5.05886 62.0372 5.49731 63.12 6.36989ZM60.46 13.7899C60.8752 13.5445 61.1877 13.1574 61.34 12.6999V11.5999H59.2C57.92 11.5999 57.28 12.0199 57.28 12.8599C57.2662 13.0529 57.3022 13.2462 57.3845 13.4213C57.4668 13.5964 57.5926 13.7474 57.75 13.8599C58.1325 14.1094 58.5839 14.2319 59.04 14.2099C59.5436 14.2071 60.036 14.0615 60.46 13.7899Z" fill="#F57706"/>
<path d="M74.22 15.58C73.883 15.8268 73.4981 16.0005 73.09 16.09C72.6288 16.2043 72.1552 16.2614 71.68 16.26C70.5879 16.3302 69.5115 15.9714 68.68 15.26C68.3204 14.8771 68.0455 14.4227 67.8732 13.9265C67.7009 13.4303 67.6351 12.9034 67.68 12.38V8H66V5.58H67.66V3H70.78V5.58H73.46V8H70.78V12.38C70.7586 12.7618 70.8837 13.1374 71.13 13.43C71.2611 13.5589 71.418 13.6585 71.5903 13.7222C71.7627 13.786 71.9466 13.8125 72.13 13.8C72.5832 13.8133 73.0275 13.6723 73.39 13.4L74.22 15.58Z" fill="#F57706"/>
<path d="M84.1601 6.36989C84.6376 6.83846 85.0055 7.40698 85.2372 8.03462C85.4689 8.66226 85.5586 9.33342 85.5001 9.99989V16.0999H82.5801V14.7599C82.2234 15.2865 81.7287 15.705 81.1503 15.9695C80.5718 16.2341 79.9318 16.3345 79.3001 16.2599C78.5615 16.2766 77.8281 16.1334 77.1501 15.8399C76.5868 15.5918 76.105 15.1897 75.7601 14.6799C75.4369 14.1799 75.2698 13.5951 75.2801 12.9999C75.2629 12.5444 75.3568 12.0915 75.5536 11.6803C75.7505 11.2692 76.0444 10.9121 76.4101 10.6399C77.453 9.99089 78.675 9.68976 79.9001 9.77989H82.3801C82.3974 9.48882 82.3509 9.19748 82.2438 8.92628C82.1367 8.65507 81.9716 8.41057 81.7601 8.20989C81.2296 7.8025 80.5668 7.60651 79.9001 7.65989C79.3261 7.66083 78.7558 7.75194 78.2101 7.92989C77.7003 8.08713 77.2228 8.33437 76.8001 8.65989L75.6801 6.47989C76.3225 6.03078 77.0357 5.69274 77.7901 5.47989C78.6139 5.25155 79.4652 5.13715 80.3201 5.13989C81.7084 5.05886 83.0772 5.49731 84.1601 6.36989ZM81.5001 13.7899C81.9152 13.5445 82.2277 13.1574 82.3801 12.6999V11.5999H80.2401C78.9601 11.5999 78.3201 12.0199 78.3201 12.8599C78.3063 13.0529 78.3422 13.2462 78.4245 13.4213C78.5068 13.5964 78.6327 13.7474 78.7901 13.8599C79.1725 14.1094 79.624 14.2319 80.0801 14.2099C80.5836 14.2071 81.076 14.0615 81.5001 13.7899Z" fill="#F57706"/>
<path d="M12.48 6.13998L14.55 4.20998C13.7259 3.32427 12.6999 2.65079 11.5595 2.24686C10.4191 1.84292 9.19796 1.72049 8.00005 1.88998C6.67731 1.95515 5.39549 2.36987 4.28526 3.09187C3.17503 3.81387 2.27608 4.81733 1.68005 5.99998C1.15467 7.14426 0.93121 8.40406 1.03099 9.65923C1.13078 10.9144 1.55047 12.1231 2.25005 13.17C2.94852 14.1594 3.87446 14.9665 4.94994 15.5234C6.02542 16.0803 7.21895 16.3706 8.43005 16.37C10.5332 16.445 12.6016 15.8189 14.3101 14.59V9.26998H11.3101L9.50005 9.29998V11.17H11.8101V12.84C11.8101 12.84 9.00005 14.32 6.46005 13C5.80428 12.6284 5.25769 12.091 4.87508 11.4416C4.49247 10.7922 4.28727 10.0537 4.28005 9.29998C4.22099 8.45957 4.40444 7.61987 4.80861 6.88066C5.21278 6.14146 5.82067 5.53383 6.56005 5.12998C7.52676 4.65034 8.62069 4.48971 9.68448 4.6712C10.7483 4.85269 11.7271 5.36695 12.48 6.13998Z" fill="#201600"/>
<path d="M91.4399 2.1001V18.0901" stroke="#696869" stroke-miterlimit="10"/>
<path d="M102.21 5.9999H99.09L98.42 7.4999H97.8L100.36 1.8999H100.94L103.51 7.4999H102.88L102.21 5.9999ZM102 5.5599L100.66 2.5599L99.31 5.5599H102Z" fill="#696869"/>
<path d="M104.44 3.33008H105V5.20008H107.65V3.33008H108.21V7.54008H107.65V5.68008H105V7.54008H104.43L104.44 3.33008Z" fill="#696869"/>
<path d="M112.55 3.70992C112.708 3.86932 112.83 4.06069 112.907 4.27114C112.985 4.48158 113.016 4.70622 113 4.92992V7.53992H112.46V6.87992C112.324 7.10428 112.126 7.28477 111.89 7.39992C111.614 7.52586 111.313 7.58742 111.01 7.57992C110.608 7.60273 110.211 7.48225 109.89 7.23992C109.755 7.137 109.647 7.00354 109.574 6.85054C109.501 6.69754 109.465 6.52938 109.47 6.35992C109.464 6.19473 109.496 6.03039 109.564 5.87955C109.631 5.72872 109.733 5.59542 109.86 5.48992C110.222 5.23945 110.661 5.12279 111.1 5.15992H112.43V4.90992C112.44 4.75835 112.418 4.60636 112.367 4.46351C112.315 4.32066 112.235 4.19006 112.13 4.07992C111.881 3.87522 111.562 3.77489 111.24 3.79992C110.978 3.79845 110.717 3.84243 110.47 3.92992C110.241 4.01353 110.028 4.13525 109.84 4.28992L109.59 3.86992C109.815 3.68353 110.073 3.54106 110.35 3.44992C110.672 3.3437 111.011 3.29298 111.35 3.29992C111.787 3.28463 112.214 3.43057 112.55 3.70992ZM111.91 6.90992C112.144 6.76071 112.323 6.53962 112.42 6.27992V5.58992H111.1C110.38 5.58992 110.02 5.83992 110.02 6.33992C110.017 6.45195 110.041 6.5631 110.089 6.66403C110.138 6.76496 110.21 6.85272 110.3 6.91992C110.534 7.07304 110.811 7.14668 111.09 7.12992C111.379 7.13943 111.664 7.06286 111.91 6.90992Z" fill="#696869"/>
<path d="M117.94 3.33006V7.54006H117.38V3.84006H115.38L115.32 4.84006C115.309 5.51708 115.208 6.18966 115.02 6.84006C114.979 7.03868 114.871 7.21734 114.715 7.34646C114.559 7.47558 114.363 7.54741 114.16 7.55006C114.024 7.54703 113.889 7.52343 113.76 7.48006V6.99006C113.826 6.99992 113.894 6.99992 113.96 6.99006C114.063 6.99288 114.165 6.9649 114.252 6.90969C114.339 6.85448 114.408 6.77454 114.45 6.68006C114.571 6.46925 114.656 6.23929 114.7 6.00006C114.7 5.70006 114.77 5.31006 114.79 4.82006L114.86 3.31006L117.94 3.33006Z" fill="#696869"/>
<path d="M119.56 3.33008H120.13V6.68008L122.94 3.33008H123.44V7.54008H122.87V4.20008L120.07 7.54008H119.56V3.33008Z" fill="#696869"/>
<path d="M127.72 5.70988C127.878 5.87721 127.964 6.09978 127.96 6.32988C127.96 6.57295 127.871 6.80757 127.71 6.98988C127.522 7.19353 127.284 7.34509 127.02 7.42988C126.701 7.5485 126.361 7.60287 126.02 7.58988C125.719 7.58663 125.42 7.5429 125.13 7.45988C124.851 7.37897 124.59 7.2467 124.36 7.06988L124.55 6.63988C124.751 6.7922 124.978 6.90734 125.22 6.97988C125.473 7.05873 125.736 7.09919 126 7.09988C126.348 7.12607 126.696 7.04957 127 6.87988C127.113 6.82553 127.209 6.74046 127.276 6.63437C127.343 6.52828 127.379 6.40545 127.38 6.27988C127.379 6.1735 127.35 6.06929 127.296 5.97792C127.241 5.88654 127.163 5.81129 127.07 5.75988C126.815 5.62367 126.529 5.55807 126.24 5.56988H125.52V5.15988H126.21C126.483 5.1834 126.758 5.12786 127 4.99988C127.088 4.9516 127.161 4.88067 127.212 4.79449C127.263 4.70831 127.29 4.61002 127.29 4.50988C127.289 4.39976 127.258 4.29206 127.199 4.19858C127.141 4.10509 127.058 4.02943 126.96 3.97988C126.701 3.84592 126.412 3.78051 126.12 3.78988C125.649 3.79888 125.186 3.91878 124.77 4.13988L124.61 3.69988C125.091 3.4439 125.626 3.30675 126.17 3.29988C126.466 3.29766 126.76 3.34499 127.04 3.43988C127.273 3.52136 127.483 3.6587 127.65 3.83988C127.795 4.00218 127.873 4.21264 127.87 4.42988C127.875 4.6415 127.796 4.84647 127.65 4.99988C127.488 5.17572 127.28 5.30368 127.05 5.36988C127.3 5.42053 127.532 5.53803 127.72 5.70988Z" fill="#696869"/>
<path d="M135.12 3.33008V7.54008H134.55V3.84008H131.91V7.54008H131.34V3.33008H135.12Z" fill="#696869"/>
<path d="M140 3.56997C140.315 3.74502 140.575 4.00483 140.75 4.31997C140.927 4.66603 141.013 5.05147 141 5.43997C141.007 5.83021 140.914 6.21575 140.73 6.55997C140.555 6.87511 140.295 7.13492 139.98 7.30997C139.65 7.49279 139.277 7.58588 138.9 7.57997C138.581 7.58436 138.266 7.51235 137.98 7.36997C137.704 7.2246 137.47 7.01118 137.3 6.74997V9.08997H136.74V3.32997H137.28V4.15997C137.447 3.89113 137.682 3.67053 137.96 3.51997C138.252 3.37357 138.574 3.29819 138.9 3.29997C139.284 3.29052 139.664 3.38372 140 3.56997ZM139.68 6.86997C139.921 6.73496 140.119 6.53371 140.25 6.28997C140.385 6.0272 140.454 5.73538 140.45 5.43997C140.454 5.14136 140.385 4.84629 140.25 4.57997C140.113 4.3405 139.917 4.14063 139.68 3.99997C139.435 3.86625 139.159 3.79741 138.88 3.79997C138.601 3.79872 138.326 3.86748 138.08 3.99997C137.846 4.14089 137.653 4.34091 137.52 4.57997C137.38 4.84451 137.311 5.14083 137.32 5.43997C137.312 5.73588 137.38 6.02888 137.52 6.28997C137.647 6.53335 137.841 6.7348 138.08 6.86997C138.323 7.01022 138.599 7.08273 138.88 7.07997C139.154 7.08062 139.423 7.00813 139.66 6.86997H139.68Z" fill="#696869"/>
<path d="M142.86 7.30024C142.54 7.12442 142.276 6.86076 142.1 6.54024C141.908 6.20584 141.812 5.82554 141.82 5.44024C141.813 5.0519 141.91 4.66869 142.1 4.33024C142.279 4.0123 142.542 3.74948 142.86 3.57024C143.2 3.39322 143.577 3.30078 143.96 3.30078C144.343 3.30078 144.72 3.39322 145.06 3.57024C145.378 3.74948 145.641 4.0123 145.82 4.33024C146.006 4.67056 146.102 5.0525 146.1 5.44024C146.104 5.82497 146.007 6.20403 145.82 6.54024C145.644 6.86076 145.381 7.12442 145.06 7.30024C144.723 7.48404 144.344 7.58034 143.96 7.58034C143.576 7.58034 143.198 7.48404 142.86 7.30024ZM144.76 6.87024C145.001 6.73795 145.196 6.53573 145.32 6.29024C145.455 6.02747 145.524 5.73565 145.52 5.44024C145.524 5.14163 145.455 4.84656 145.32 4.58024C145.193 4.33686 144.999 4.1354 144.76 4.00024C144.514 3.86892 144.239 3.80024 143.96 3.80024C143.681 3.80024 143.406 3.86892 143.16 4.00024C142.921 4.1354 142.727 4.33686 142.6 4.58024C142.457 4.844 142.385 5.14026 142.39 5.44024C142.385 5.73705 142.457 6.0301 142.6 6.29024C142.724 6.53573 142.919 6.73795 143.16 6.87024C143.404 7.00779 143.68 7.08006 143.96 7.08006C144.24 7.08006 144.516 7.00779 144.76 6.87024Z" fill="#696869"/>
<path d="M151.39 7.00004V8.56004H150.86V7.56004H147.09V8.56004H146.55V7.00004H146.79C147.08 7.00004 147.27 6.78004 147.37 6.38004C147.49 5.82743 147.56 5.26519 147.58 4.70004V3.29004H150.69V7.00004H151.39ZM147.94 6.21004C147.915 6.5133 147.776 6.79568 147.55 7.00004H150.17V3.84004H148.17V4.77004C148.13 5.26837 148.053 5.76306 147.94 6.25004V6.21004Z" fill="#696869"/>
<path d="M155.21 3.70979C155.364 3.87152 155.483 4.0635 155.558 4.27352C155.634 4.48355 155.665 4.70704 155.65 4.92979V7.53979H155.1V6.87979C154.97 7.1057 154.775 7.28699 154.54 7.39979C154.264 7.52573 153.963 7.58729 153.66 7.57979C153.258 7.60438 152.861 7.48371 152.54 7.23979C152.405 7.13687 152.297 7.00341 152.224 6.85041C152.151 6.69741 152.115 6.52925 152.12 6.35979C152.114 6.1946 152.146 6.03026 152.214 5.87942C152.282 5.72859 152.383 5.59529 152.51 5.48979C152.869 5.24004 153.304 5.12334 153.74 5.15979H155.08V4.90979C155.09 4.75823 155.069 4.60623 155.017 4.46338C154.965 4.32053 154.885 4.18993 154.78 4.07979C154.53 3.87692 154.212 3.77682 153.89 3.79979C153.628 3.79728 153.367 3.8413 153.12 3.92979C152.889 4.00888 152.675 4.13104 152.49 4.28979L152.23 3.86979C152.457 3.68127 152.719 3.53864 153 3.44979C153.303 3.34906 153.621 3.2984 153.94 3.29979C154.4 3.27172 154.853 3.41813 155.21 3.70979ZM154.57 6.90979C154.804 6.76058 154.983 6.53949 155.08 6.27979V5.58979H153.76C153.04 5.58979 152.68 5.83979 152.68 6.33979C152.674 6.4522 152.697 6.56427 152.746 6.66564C152.795 6.76701 152.868 6.85442 152.96 6.91979C153.191 7.07149 153.464 7.1451 153.74 7.12979C154.032 7.13949 154.321 7.06298 154.57 6.90979Z" fill="#696869"/>
<path d="M160.85 5.67008H159.94V7.54008H159.37V5.67008H158.46L157.17 7.54008H156.49L158 5.37008L156.61 3.37008H157.22L158.46 5.22008H159.37V3.33008H159.94V5.18008H160.85L162.09 3.33008H162.7L161.31 5.38008L162.82 7.54008H162.14L160.85 5.67008Z" fill="#696869"/>
<path d="M98.49 12.9302H99.06V14.8002H101.71V12.9302H102.27V17.1402H101.71V15.2802H99.06V17.1402H98.49V12.9302Z" fill="#696869"/>
<path d="M106.6 13.3099C106.754 13.4716 106.872 13.6636 106.948 13.8736C107.024 14.0837 107.055 14.3071 107.04 14.5299V17.1399H106.5V16.4799C106.364 16.7042 106.166 16.8847 105.93 16.9999C105.654 17.1258 105.353 17.1874 105.05 17.1799C104.648 17.2027 104.251 17.0822 103.93 16.8399C103.795 16.737 103.687 16.6035 103.614 16.4505C103.541 16.2975 103.505 16.1294 103.51 15.9599C103.504 15.7947 103.536 15.6304 103.604 15.4795C103.671 15.3287 103.773 15.1954 103.9 15.0899C104.263 14.8394 104.701 14.7228 105.14 14.7599H106.47V14.5099C106.48 14.3583 106.458 14.2063 106.407 14.0635C106.355 13.9206 106.275 13.79 106.17 13.6799C105.921 13.4752 105.602 13.3749 105.28 13.3999C105.018 13.3974 104.757 13.4414 104.51 13.5299C104.281 13.6135 104.068 13.7352 103.88 13.8899L103.62 13.4699C103.848 13.2834 104.109 13.141 104.39 13.0499C104.712 12.9437 105.051 12.8929 105.39 12.8999C105.83 12.8821 106.261 13.0282 106.6 13.3099ZM105.96 16.5099C106.194 16.3607 106.373 16.1396 106.47 15.8799V15.1899H105.15C104.43 15.1899 104.07 15.4399 104.07 15.9399C104.067 16.0519 104.091 16.1631 104.139 16.264C104.188 16.3649 104.26 16.4527 104.35 16.5199C104.584 16.673 104.861 16.7467 105.14 16.7299C105.443 16.7476 105.743 16.6707 106 16.5099H105.96Z" fill="#696869"/>
<path d="M118.44 11.54L116.55 17.14H115.93L114.29 12.36L112.64 17.14H112L110.12 11.54H110.73L112.34 16.36L114 11.54H114.56L116.2 16.38L117.84 11.54H118.44Z" fill="#696869"/>
<path d="M119.37 11.8902C119.33 11.8532 119.299 11.8082 119.279 11.7581C119.258 11.7081 119.248 11.6543 119.25 11.6002C119.25 11.5472 119.261 11.4948 119.281 11.4462C119.302 11.3975 119.333 11.3536 119.371 11.3171C119.41 11.2806 119.455 11.2523 119.505 11.2339C119.554 11.2155 119.607 11.2075 119.66 11.2102C119.715 11.2069 119.77 11.215 119.821 11.2339C119.873 11.2528 119.92 11.2822 119.96 11.3202C119.998 11.356 120.029 11.3994 120.049 11.4476C120.07 11.4958 120.08 11.5478 120.08 11.6002C120.081 11.6541 120.07 11.7076 120.05 11.7574C120.029 11.8073 119.998 11.8524 119.96 11.8902C119.921 11.9295 119.874 11.9603 119.822 11.981C119.771 12.0016 119.715 12.0115 119.66 12.0102C119.606 12.0108 119.553 12.0004 119.503 11.9798C119.453 11.9592 119.408 11.9287 119.37 11.8902ZM119.37 12.8902H119.93V17.1002H119.37V12.8902Z" fill="#696869"/>
<path d="M121.53 11.21H122.1V17.14H121.53V11.21Z" fill="#696869"/>
<path d="M127.52 11.21V17.14H127V16.31C126.836 16.584 126.601 16.8086 126.32 16.96C126.011 17.1188 125.667 17.1946 125.32 17.18C124.946 17.1846 124.577 17.0915 124.25 16.91C123.936 16.7293 123.676 16.4666 123.5 16.15C123.323 15.805 123.23 15.4228 123.23 15.035C123.23 14.6471 123.323 14.2649 123.5 13.92C123.675 13.6048 123.935 13.345 124.25 13.17C124.577 12.9884 124.946 12.8953 125.32 12.9C125.642 12.8959 125.961 12.9678 126.25 13.11C126.525 13.2529 126.756 13.467 126.92 13.73V11.21H127.52ZM126.2 16.47C126.436 16.3318 126.63 16.1311 126.76 15.89C126.915 15.619 126.998 15.3124 127 15C127.004 14.7014 126.935 14.4063 126.8 14.14C126.669 13.8956 126.472 13.693 126.232 13.5551C125.991 13.4172 125.717 13.3496 125.44 13.36C125.16 13.3511 124.883 13.4204 124.64 13.56C124.401 13.6951 124.207 13.8966 124.08 14.14C123.937 14.4037 123.865 14.7 123.87 15C123.864 15.2968 123.937 15.5898 124.08 15.85C124.204 16.0955 124.399 16.2977 124.64 16.43C124.882 16.5726 125.159 16.6453 125.44 16.64C125.703 16.648 125.965 16.5896 126.2 16.47Z" fill="#696869"/>
<path d="M132.35 13.17C132.663 13.3479 132.922 13.607 133.1 13.92C133.277 14.2649 133.37 14.6471 133.37 15.035C133.37 15.4228 133.277 15.805 133.1 16.15C132.924 16.4666 132.664 16.7293 132.35 16.91C132.019 17.0915 131.647 17.1845 131.27 17.18C130.923 17.1946 130.579 17.1188 130.27 16.96C129.994 16.8056 129.763 16.5815 129.6 16.31V17.14H129.05V11.21H129.62V13.73C129.788 13.4666 130.022 13.2527 130.3 13.11C130.586 12.9676 130.901 12.8956 131.22 12.9C131.614 12.8866 132.005 12.9799 132.35 13.17ZM132.03 16.47C132.271 16.335 132.469 16.1337 132.6 15.89C132.735 15.6272 132.804 15.3354 132.8 15.04C132.804 14.7414 132.735 14.4463 132.6 14.18C132.467 13.9381 132.27 13.7375 132.03 13.6C131.784 13.4686 131.509 13.4 131.23 13.4C130.951 13.4 130.676 13.4686 130.43 13.6C130.194 13.7382 130 13.9388 129.87 14.18C129.727 14.4437 129.655 14.74 129.66 15.04C129.655 15.3368 129.727 15.6298 129.87 15.89C129.997 16.1333 130.191 16.3348 130.43 16.47C130.674 16.6075 130.95 16.6798 131.23 16.6798C131.51 16.6798 131.786 16.6075 132.03 16.47Z" fill="#696869"/>
<path d="M138.19 15.2099H134.67C134.678 15.4121 134.728 15.6104 134.815 15.7928C134.903 15.9751 135.027 16.1375 135.18 16.2699C135.497 16.5486 135.908 16.6953 136.33 16.6799C136.577 16.6807 136.822 16.6332 137.05 16.5399C137.267 16.4455 137.461 16.3057 137.62 16.1299L137.94 16.4899C137.755 16.7175 137.514 16.8932 137.24 16.9999C136.946 17.1227 136.629 17.1839 136.31 17.1799C135.909 17.1885 135.512 17.092 135.16 16.8999C134.835 16.7275 134.567 16.4632 134.39 16.1399C134.195 15.8065 134.095 15.4262 134.1 15.0399C134.094 14.653 134.187 14.271 134.37 13.9299C134.544 13.6146 134.8 13.352 135.11 13.1699C135.432 12.9931 135.793 12.9004 136.16 12.9004C136.527 12.9004 136.888 12.9931 137.21 13.1699C137.517 13.3534 137.769 13.6159 137.94 13.9299C138.111 14.2607 138.2 14.6276 138.2 14.9999L138.19 15.2099ZM135.14 13.7799C134.866 14.0442 134.699 14.4002 134.67 14.7799H137.67C137.642 14.4002 137.474 14.0442 137.2 13.7799C136.918 13.5283 136.553 13.3893 136.175 13.3893C135.797 13.3893 135.432 13.5283 135.15 13.7799H135.14Z" fill="#696869"/>
<path d="M140.5 13.1202C140.809 12.9614 141.153 12.8855 141.5 12.9002V13.4502H141.37C141.184 13.4466 140.999 13.4811 140.827 13.5516C140.655 13.6221 140.5 13.7272 140.37 13.8602C140.107 14.1835 139.974 14.594 140 15.0102V17.1502H139.43V12.9302H139.97V13.7602C140.077 13.4975 140.262 13.274 140.5 13.1202Z" fill="#696869"/>
<path d="M143.64 13.1202C143.949 12.9614 144.293 12.8855 144.64 12.9002V13.4502H144.51C144.324 13.4466 144.14 13.4811 143.968 13.5516C143.796 13.6221 143.64 13.7272 143.51 13.8602C143.243 14.182 143.107 14.5927 143.13 15.0102V17.1502H142.56V12.9302H143.11V13.7602C143.213 13.4954 143.399 13.2709 143.64 13.1202Z" fill="#696869"/>
<path d="M145.64 11.8902C145.6 11.8532 145.569 11.8082 145.549 11.7581C145.528 11.7081 145.518 11.6543 145.52 11.6002C145.52 11.5478 145.531 11.4961 145.552 11.448C145.572 11.3999 145.602 11.3564 145.64 11.3202C145.68 11.2822 145.727 11.2528 145.779 11.2339C145.83 11.215 145.885 11.2069 145.94 11.2102C145.993 11.2077 146.047 11.2162 146.096 11.2351C146.146 11.254 146.192 11.283 146.23 11.3202C146.268 11.356 146.299 11.3994 146.319 11.4476C146.34 11.4958 146.35 11.5478 146.35 11.6002C146.35 11.7089 146.307 11.8132 146.23 11.8901C146.153 11.967 146.049 12.0102 145.94 12.0102C145.884 12.0115 145.829 12.0016 145.778 11.981C145.726 11.9603 145.679 11.9295 145.64 11.8902ZM145.64 12.8902H146.21V17.1002H145.64V12.8902Z" fill="#696869"/>
<path d="M151.46 15.2099H147.94C147.95 15.4117 148 15.6095 148.087 15.7916C148.175 15.9737 148.298 16.1363 148.45 16.2699C148.768 16.5468 149.179 16.6933 149.6 16.6799C149.847 16.6807 150.091 16.6332 150.32 16.5399C150.537 16.4455 150.731 16.3057 150.89 16.1299L151.21 16.4899C151.025 16.7175 150.783 16.8932 150.51 16.9999C150.215 17.1227 149.899 17.1839 149.58 17.1799C149.182 17.1896 148.788 17.0929 148.44 16.8999C148.11 16.7306 147.838 16.4658 147.66 16.1399C147.468 15.8055 147.372 15.4252 147.38 15.0399C147.376 14.6544 147.465 14.2735 147.64 13.9299C147.814 13.6146 148.069 13.352 148.38 13.1699C148.702 12.9931 149.063 12.9004 149.43 12.9004C149.797 12.9004 150.158 12.9931 150.48 13.1699C150.787 13.3534 151.039 13.6159 151.21 13.9299C151.387 14.2727 151.476 14.6541 151.47 15.0399L151.46 15.2099ZM148.41 13.7799C148.136 14.0442 147.968 14.4002 147.94 14.7799H150.94C150.911 14.4002 150.744 14.0442 150.47 13.7799C150.188 13.5283 149.823 13.3893 149.445 13.3893C149.067 13.3893 148.702 13.5283 148.42 13.7799H148.41Z" fill="#696869"/>
<path d="M152.78 17.0002C152.515 16.9267 152.266 16.8009 152.05 16.6302L152.3 16.1802C152.502 16.3309 152.729 16.4459 152.97 16.5202C153.238 16.6095 153.518 16.6534 153.8 16.6502C154.095 16.676 154.391 16.6133 154.65 16.4702C154.738 16.4206 154.811 16.3477 154.86 16.2595C154.91 16.1713 154.934 16.0712 154.93 15.9702C154.934 15.9013 154.922 15.8324 154.896 15.7685C154.87 15.7045 154.831 15.6471 154.78 15.6002C154.666 15.5055 154.533 15.4372 154.39 15.4002C154.189 15.3465 153.985 15.3032 153.78 15.2702C153.499 15.2246 153.221 15.1577 152.95 15.0702C152.745 15.0079 152.562 14.8902 152.42 14.7302C152.263 14.5475 152.184 14.3105 152.2 14.0702C152.195 13.9013 152.232 13.7339 152.309 13.5835C152.386 13.4331 152.5 13.3047 152.64 13.2102C152.997 12.9621 153.427 12.8423 153.86 12.8702C154.137 12.8717 154.413 12.9086 154.68 12.9802C154.917 13.0379 155.143 13.1324 155.35 13.2602L155.1 13.7202C154.734 13.4736 154.301 13.3477 153.86 13.3602C153.574 13.3404 153.288 13.4066 153.04 13.5502C152.957 13.6047 152.889 13.6789 152.842 13.7662C152.795 13.8534 152.77 13.951 152.77 14.0502C152.767 14.122 152.779 14.1935 152.805 14.2606C152.831 14.3276 152.87 14.3887 152.92 14.4402C153.033 14.5385 153.166 14.6102 153.31 14.6502C153.521 14.7085 153.734 14.7552 153.95 14.7902C154.224 14.8377 154.494 14.9011 154.76 14.9802C154.957 15.0466 155.136 15.1598 155.28 15.3102C155.43 15.4888 155.509 15.7169 155.5 15.9502C155.507 16.1242 155.468 16.297 155.387 16.4513C155.306 16.6057 155.187 16.7363 155.04 16.8302C154.655 17.0618 154.209 17.1732 153.76 17.1502C153.428 17.1516 153.097 17.1009 152.78 17.0002Z" fill="#696869"/>
</svg>
