<svg width="55" height="55" viewBox="0 0 55 55" fill="none" xmlns="http://www.w3.org/2000/svg">
<g filter="url(#filter0_d_24:5)">
<circle cx="27.5" cy="25.5" r="22.5" fill="white"/>
</g>
<g opacity="0.5">
<path d="M27.9864 23.9375H26.9219L26.384 25.8887L24.2172 25.8922L23.8489 26.8141L25.7485 28.0633L24.8711 30.082L25.6782 30.6832L27.4547 29.223L29.2309 30.6832L30.0383 30.082L29.161 28.0633L31.061 26.8137L30.6907 25.891L28.5329 25.8906L27.9864 23.9375ZM28.1825 27.7719L28.8848 29.3875L27.4551 28.2121L26.0254 29.3871L26.727 27.7719L25.0547 26.6719L26.9793 26.6691L27.4559 24.9414L27.9399 26.6719L29.8547 26.6723L28.1825 27.7719Z" fill="#535AFB"/>
<path d="M27.5 22.375C24.7 22.375 22.4219 24.6531 22.4219 27.4531C22.4219 30.2531 24.7 32.5312 27.5 32.5312C30.3 32.5312 32.5781 30.2531 32.5781 27.4531C32.5781 24.6531 30.3 22.375 27.5 22.375ZM27.5 31.75C25.1309 31.75 23.2031 29.8223 23.2031 27.4531C23.2031 25.084 25.1309 23.1562 27.5 23.1562C29.8691 23.1562 31.7969 25.084 31.7969 27.4531C31.7969 29.8223 29.8691 31.75 27.5 31.75Z" fill="#535AFB"/>
<path d="M22.4219 18.8594H23.2031V19.6406H22.4219V18.8594Z" fill="#535AFB"/>
<path d="M22.4219 21.9844H23.2031V22.7656H22.4219V21.9844Z" fill="#535AFB"/>
<path d="M22.4219 20.4219H23.2031V21.2031H22.4219V20.4219Z" fill="#535AFB"/>
<path d="M31.7969 33.7031H32.5781V34.4844H31.7969V33.7031Z" fill="#535AFB"/>
<path d="M31.7969 32.1406H32.5781V32.9219H31.7969V32.1406Z" fill="#535AFB"/>
<path d="M31.7969 30.5781H32.5781V31.3594H31.7969V30.5781Z" fill="#535AFB"/>
<path d="M39.6094 17.6875C39.6094 15.9352 36.8641 14.5625 33.3594 14.5625C32.6652 14.5625 31.9887 14.6195 31.3414 14.7266L30.0055 13.3906H24.9945L20.8594 17.5258V37.6094H34.1406V20.7867C37.2625 20.5996 39.6094 19.307 39.6094 17.6875ZM25.318 14.1719H29.682L32.807 17.2969H29.4137C29.232 16.4066 28.443 15.7344 27.5 15.7344C26.557 15.7344 25.768 16.4066 25.5863 17.2969H22.193L25.318 14.1719ZM27.8906 17.6875C27.8906 17.3516 28.0816 17.0586 28.298 16.8344C28.527 17.0484 28.6719 17.3504 28.6719 17.6875C28.6719 18.0211 28.5301 18.3207 28.3059 18.5344C28.0367 18.2586 27.8906 17.9691 27.8906 17.6875ZM27.5496 18.8543C27.5328 18.8551 27.5168 18.8594 27.5 18.8594C26.8539 18.8594 26.3281 18.3336 26.3281 17.6875C26.3281 17.0414 26.8539 16.5156 27.5 16.5156C27.5145 16.5156 27.5277 16.5195 27.5422 16.5199C27.2594 16.8852 27.1094 17.2805 27.1094 17.6875C27.1094 18.1023 27.268 18.4953 27.5496 18.8543ZM29.4137 18.0781H33.3594V20.0312C31.4488 20.0312 29.8867 19.5957 28.927 19.0113C29.1664 18.7539 29.341 18.4352 29.4137 18.0781ZM33.3594 35.2656H23.2031V36.0469H33.3594V36.8281H21.6406V36.0469H22.4219V35.2656H21.6406V18.0781H25.5863C25.768 18.9684 26.5566 19.6406 27.5 19.6406C27.7602 19.6406 28.0074 19.5875 28.2348 19.4945C29.3551 20.2961 31.2133 20.8125 33.3594 20.8125V35.2656ZM34.1406 20.0035V17.5258L32.034 15.4191C32.4656 15.3711 32.9078 15.3438 33.3594 15.3438C36.582 15.3438 38.8281 16.5789 38.8281 17.6875C38.8281 18.7039 36.9379 19.8234 34.1406 20.0035Z" fill="#535AFB"/>
</g>
<defs>
<filter id="filter0_d_24:5" x="0" y="0" width="55" height="55" filterUnits="userSpaceOnUse" color-interpolation-filters="sRGB">
<feFlood flood-opacity="0" result="BackgroundImageFix"/>
<feColorMatrix in="SourceAlpha" type="matrix" values="0 0 0 0 0 0 0 0 0 0 0 0 0 0 0 0 0 0 127 0" result="hardAlpha"/>
<feOffset dy="2"/>
<feGaussianBlur stdDeviation="2.5"/>
<feColorMatrix type="matrix" values="0 0 0 0 0 0 0 0 0 0 0 0 0 0 0 0 0 0 0.05 0"/>
<feBlend mode="normal" in2="BackgroundImageFix" result="effect1_dropShadow_24:5"/>
<feBlend mode="normal" in="SourceGraphic" in2="effect1_dropShadow_24:5" result="shape"/>
</filter>
</defs>
</svg>
