<svg width="55" height="55" viewBox="0 0 55 55" fill="none" xmlns="http://www.w3.org/2000/svg">
<g filter="url(#filter0_d_24:6)">
<circle cx="27.5" cy="25.5" r="22.5" fill="white"/>
</g>
<path d="M31.0652 16.0892C30.8139 14.3282 29.2811 13 27.4998 13C26.3542 13 25.2663 13.5528 24.5899 14.4792C24.4517 14.6682 24.493 14.9332 24.682 15.0714C24.8703 15.2091 25.1359 15.1682 25.2739 14.979C25.7916 14.2706 26.6236 13.8475 27.4997 13.8475C28.862 13.8475 30.034 14.8627 30.2261 16.2087C30.2564 16.4202 30.4378 16.5727 30.6452 16.5727C30.665 16.5727 30.6853 16.5712 30.7056 16.5685C30.9372 16.5354 31.0982 16.3207 31.0652 16.0892Z" fill="#535AFB"/>
<path d="M37.1851 20.8327L35.914 18.714C35.8375 18.5863 35.6996 18.5083 35.5506 18.5083H34.3324C34.0986 18.5083 33.9087 18.6981 33.9087 18.932C33.9087 19.1659 34.0986 19.3557 34.3324 19.3557H35.3108L36.0735 20.6269H18.926L19.6887 19.3557H20.1375C20.3714 19.3557 20.5612 19.1659 20.5612 18.932C20.5612 18.6981 20.3714 18.5083 20.1375 18.5083H19.4489C19.2999 18.5083 19.162 18.5863 19.0855 18.714L17.8144 20.8327C17.7358 20.9638 17.7339 21.1268 17.809 21.2596C17.8841 21.3924 18.0249 21.4746 18.1777 21.4746H36.8218C36.9746 21.4746 37.1153 21.3924 37.1905 21.2596C37.2657 21.1268 37.2637 20.9635 37.1851 20.8327Z" fill="#535AFB"/>
<path d="M35.0731 16.9259C35.0138 16.8302 34.919 16.7623 34.8095 16.7367L29.0332 15.3857C28.9239 15.36 28.8087 15.3791 28.7131 15.4382C28.6177 15.4975 28.5497 15.5922 28.5241 15.7017L28.0885 17.5638C28.0352 17.7916 28.1767 18.0195 28.4046 18.0727C28.6324 18.1261 28.8606 17.9845 28.9137 17.7566L29.2528 16.3073L34.2039 17.4654L33.4259 20.7917C33.3725 21.0195 33.514 21.2474 33.7419 21.3005C33.7746 21.3081 33.807 21.3117 33.839 21.3117C34.0314 21.3117 34.2056 21.1799 34.2509 20.9846L35.1255 17.2458C35.1513 17.1364 35.1324 17.0212 35.0731 16.9259Z" fill="#535AFB"/>
<path d="M27.7239 17.9272L27.3379 14.6617C27.3247 14.5501 27.2677 14.4482 27.1793 14.3786C27.0909 14.3091 26.9793 14.2774 26.8672 14.2905L19.7801 15.1282C19.5479 15.1558 19.3818 15.3663 19.4092 15.5988L20.0529 21.0452C20.0784 21.2608 20.2613 21.4193 20.4732 21.4193C20.4897 21.4193 20.5067 21.4182 20.5236 21.4163C20.7558 21.3888 20.9218 21.1782 20.8945 20.9457L20.3005 15.9198L26.5461 15.1817L26.8823 18.0264C26.9098 18.2587 27.1194 18.4238 27.3529 18.3975C27.5851 18.3702 27.7512 18.1596 27.7239 17.9272Z" fill="#535AFB"/>
<path d="M31.0751 20.8897L30.234 17.3922C30.2077 17.2831 30.1391 17.1886 30.0433 17.1299C29.9476 17.0717 29.8328 17.0534 29.7229 17.0795L22.8969 18.7211C22.6694 18.7757 22.5293 19.0046 22.584 19.2322L23.0043 20.9803C23.0589 21.2081 23.2878 21.3483 23.5152 21.2933C23.7428 21.2386 23.8828 21.0097 23.8282 20.7822L23.5068 19.4459L29.5089 18.0027L30.2509 21.0881C30.2975 21.2823 30.4713 21.4127 30.6626 21.4127C30.6955 21.4127 30.7287 21.4088 30.7621 21.4008C30.9897 21.346 31.1297 21.1172 31.0751 20.8897Z" fill="#535AFB"/>
<path d="M37.2454 21.0294C37.2337 20.8042 37.0478 20.6274 36.8221 20.6274H18.178C17.9523 20.6274 17.7663 20.8041 17.7547 21.0294L16.9072 37.5548C16.9012 37.6707 16.9432 37.7842 17.0231 37.8684C17.1032 37.9524 17.2142 38.0002 17.3304 38.0002H37.6693C37.7854 38.0002 37.8965 37.9525 37.9769 37.8684C38.0568 37.7842 38.0987 37.6709 38.0929 37.5548L37.2454 21.0294ZM17.7763 37.1527L18.5803 21.4748H36.4192L37.2233 37.1527H17.7763Z" fill="#535AFB"/>
<path d="M30.6778 22.3218C29.9768 22.3218 29.4066 22.8919 29.4066 23.593C29.4066 24.294 29.9768 24.8641 30.6778 24.8641C31.3788 24.8641 31.949 24.294 31.949 23.593C31.949 22.8919 31.3788 22.3218 30.6778 22.3218ZM30.6778 24.0168C30.444 24.0168 30.2541 23.8267 30.2541 23.5931C30.2541 23.3595 30.4442 23.1694 30.6778 23.1694C30.9114 23.1694 31.1015 23.3595 31.1015 23.5931C31.1015 23.8267 30.9114 24.0168 30.6778 24.0168Z" fill="#535AFB"/>
<path d="M24.3218 22.3218C23.6208 22.3218 23.0507 22.8919 23.0507 23.593C23.0507 24.294 23.6208 24.8641 24.3218 24.8641C25.0229 24.8641 25.593 24.294 25.593 23.593C25.593 22.8919 25.0229 22.3218 24.3218 22.3218ZM24.3218 24.0168C24.0882 24.0168 23.8982 23.8267 23.8982 23.5931C23.8982 23.3595 24.0882 23.1694 24.3218 23.1694C24.5555 23.1694 24.7455 23.3595 24.7455 23.5931C24.7455 23.8267 24.5555 24.0168 24.3218 24.0168Z" fill="#535AFB"/>
<path d="M30.6778 23.5933H30.6452C30.4113 23.5933 30.2215 23.7831 30.2215 24.0169C30.2215 24.0748 30.2329 24.13 30.2541 24.1803V26.3474C30.2541 27.866 29.0186 29.1017 27.4998 29.1017C25.9811 29.1017 24.7456 27.8661 24.7456 26.3474V24.0171C24.7456 23.7832 24.5558 23.5934 24.3219 23.5934C24.088 23.5934 23.8982 23.7832 23.8982 24.0171V26.3475C23.8982 28.3335 25.5139 29.9492 27.4998 29.9492C29.4858 29.9492 31.1015 28.3335 31.1015 26.3475V24.0171C31.1015 23.7832 30.9117 23.5933 30.6778 23.5933Z" fill="#535AFB"/>
<defs>
<filter id="filter0_d_24:6" x="0" y="0" width="55" height="55" filterUnits="userSpaceOnUse" color-interpolation-filters="sRGB">
<feFlood flood-opacity="0" result="BackgroundImageFix"/>
<feColorMatrix in="SourceAlpha" type="matrix" values="0 0 0 0 0 0 0 0 0 0 0 0 0 0 0 0 0 0 127 0" result="hardAlpha"/>
<feOffset dy="2"/>
<feGaussianBlur stdDeviation="2.5"/>
<feColorMatrix type="matrix" values="0 0 0 0 0 0 0 0 0 0 0 0 0 0 0 0 0 0 0.05 0"/>
<feBlend mode="normal" in2="BackgroundImageFix" result="effect1_dropShadow_24:6"/>
<feBlend mode="normal" in="SourceGraphic" in2="effect1_dropShadow_24:6" result="shape"/>
</filter>
</defs>
</svg>
