<svg width="55" height="55" viewBox="0 0 55 55" fill="none" xmlns="http://www.w3.org/2000/svg">
<g filter="url(#filter0_d_22:4)">
<circle cx="27.5" cy="25.5" r="22.5" fill="white"/>
</g>
<g opacity="0.5">
<path d="M33.2605 29.1032L29.9571 28.4024V27.406C31.1898 26.5568 32.0059 25.1943 32.0604 23.6479C33.154 22.5459 33.759 21.1136 33.759 19.5899V17.8387C33.759 16.8177 32.9593 15.971 31.9265 15.8404C31.0406 14.1069 29.1988 13 27.1623 13H26.4508C25.0771 13 23.7228 13.4435 22.6384 14.2488C21.1152 15.3794 20.2412 17.0855 20.2412 18.9278V19.5899C20.2412 21.1136 20.8462 22.5459 21.9398 23.6479C21.9947 25.1943 22.8104 26.5568 24.0431 27.406V28.4024L20.7397 29.1028C18.2077 29.6403 16.4394 31.7439 16.4394 34.2201V38H37.5607V34.2201C37.5607 31.7439 35.7925 29.6403 33.2605 29.1032ZM21.931 20.2581V22.3399C21.3831 21.5262 21.0861 20.5802 21.0861 19.5899V18.9278C21.0861 17.3359 21.841 15.8621 23.1573 14.8851C24.0947 14.1895 25.2644 13.8064 26.4514 13.8064H27.1628C28.948 13.8064 30.5557 14.8185 31.259 16.3846L31.3679 16.629H31.6467C32.3454 16.629 32.914 17.1718 32.914 17.8387V19.5899C32.914 20.5802 32.617 21.5263 32.0691 22.34V20.2581C32.0691 18.9238 30.9324 17.8387 29.5346 17.8387H24.4655C23.0677 17.8387 21.931 18.9238 21.931 20.2581ZM22.7758 23.4838V20.2581C22.7758 19.3685 23.5336 18.6452 24.4655 18.6452H29.5346C30.4665 18.6452 31.2243 19.3686 31.2243 20.2581V23.4838C31.2243 25.7072 29.3293 27.5161 27 27.5161C24.6708 27.5161 22.7758 25.7073 22.7758 23.4838ZM29.1121 27.877V28.5919L27 31.2798L24.8878 28.5919V27.877C25.5316 28.16 26.2455 28.3225 27 28.3225C27.7544 28.3225 28.4684 28.16 29.1121 27.877ZM24.3557 29.258L27.0001 32.6237L29.6444 29.258L30.7018 33.9677H23.2983L24.3557 29.258ZM20.6637 37.1935H17.2842V34.2201C17.2842 32.1254 18.7805 30.3448 20.9231 29.8907L23.4711 29.35L22.3957 34.1391L20.6637 35.379V37.1935ZM32.4916 37.1935H21.5085V35.7822L22.9165 34.7742H31.0833L32.4917 35.7822L32.4916 37.1935ZM36.7158 37.1935H33.3364V35.379L31.6045 34.1391L30.5294 29.35L33.0774 29.8907C35.2196 30.3448 36.7158 32.1254 36.7158 34.2201V37.1935Z" fill="#535AFB"/>
<path d="M28.6897 25.4999V25.0966C28.6897 24.8736 28.5005 24.6934 28.2673 24.6934H25.7327C25.4995 24.6934 25.3103 24.8736 25.3103 25.0966V25.4999H25.7327H28.2673H28.6897Z" fill="#535AFB"/>
</g>
<defs>
<filter id="filter0_d_22:4" x="0" y="0" width="55" height="55" filterUnits="userSpaceOnUse" color-interpolation-filters="sRGB">
<feFlood flood-opacity="0" result="BackgroundImageFix"/>
<feColorMatrix in="SourceAlpha" type="matrix" values="0 0 0 0 0 0 0 0 0 0 0 0 0 0 0 0 0 0 127 0" result="hardAlpha"/>
<feOffset dy="2"/>
<feGaussianBlur stdDeviation="2.5"/>
<feColorMatrix type="matrix" values="0 0 0 0 0 0 0 0 0 0 0 0 0 0 0 0 0 0 0.15 0"/>
<feBlend mode="normal" in2="BackgroundImageFix" result="effect1_dropShadow_22:4"/>
<feBlend mode="normal" in="SourceGraphic" in2="effect1_dropShadow_22:4" result="shape"/>
</filter>
</defs>
</svg>
