<svg width="0" height="0" class="hidden">
  <symbol xmlns="http://www.w3.org/2000/svg" viewBox="0 0 16 16" id="mail">
    <path d="M13.25 2.5H2.75C2.28602 2.5005 1.84119 2.68503 1.51311 3.01311C1.18503 3.34119 1.0005 3.78602 1 4.25V11.75C1.0005 12.214 1.18503 12.6588 1.51311 12.9869C1.84119 13.315 2.28602 13.4995 2.75 13.5H13.25C13.714 13.4995 14.1588 13.315 14.4869 12.9869C14.815 12.6588 14.9995 12.214 15 11.75V4.25C14.9995 3.78602 14.815 3.34119 14.4869 3.01311C14.1588 2.68503 13.714 2.5005 13.25 2.5ZM12.8069 5.39469L8.30688 8.89469C8.21912 8.9629 8.11115 8.99994 8 8.99994C7.88885 8.99994 7.78088 8.9629 7.69312 8.89469L3.19313 5.39469C3.14025 5.35476 3.09585 5.30472 3.06248 5.24749C3.02911 5.19025 3.00746 5.12695 2.99877 5.06127C2.99007 4.99559 2.99452 4.92884 3.01185 4.86489C3.02919 4.80094 3.05905 4.74108 3.09972 4.68878C3.14039 4.63647 3.19104 4.59277 3.24874 4.56021C3.30645 4.52766 3.37004 4.50689 3.43584 4.49913C3.50164 4.49136 3.56832 4.49675 3.63201 4.51498C3.69571 4.53321 3.75515 4.56391 3.80687 4.60531L8 7.86656L12.1931 4.60531C12.298 4.52613 12.4298 4.4914 12.56 4.50864C12.6903 4.52587 12.8085 4.59369 12.8892 4.69741C12.9698 4.80114 13.0064 4.93244 12.991 5.06293C12.9756 5.19341 12.9095 5.31259 12.8069 5.39469Z" fill="#F57706"></path>
  </symbol>
  <symbol xmlns="http://www.w3.org/2000/svg" viewBox="0 0 16 16" id="tel">
    <path d="M11 10C10 11 10 12 9 12C8 12 7 11 6 10C5 9 4 8 4 7C4 6 5 6 6 5C7 4 4 1 3 1C2 1 0 4 0 4C0 6 2.055 10.055 4 12C5.945 13.945 10 16 12 16C12 16 15 14 15 13C15 12 12 9 11 10Z" fill="#F57706"></path>
  </symbol>
   <symbol fill="none" xmlns="http://www.w3.org/2000/svg" viewBox="0 0 43 58" id="list-report">
    <path d="M39.7096 4.19704H26.3524C26.1551 3.03013 25.56 1.97185 24.6721 1.20901C23.7843 0.446174 22.6609 0.027832 21.5001 0.027832C20.3393 0.027832 19.2158 0.446174 18.328 1.20901C17.4402 1.97185 16.8451 3.03013 16.6478 4.19704H3.29054C2.43396 4.19807 1.61275 4.54562 1.00701 5.16345C0.401275 5.78129 0.0604641 6.61898 0.0593262 7.4928V54.6765C0.060338 55.5504 0.401108 56.3882 1.00687 57.006C1.61264 57.6239 2.43392 57.9714 3.29054 57.9723H39.7096C40.5662 57.9714 41.3875 57.6239 41.9933 57.006C42.5991 56.3882 42.9398 55.5504 42.9408 54.6765V7.4928C42.9397 6.61898 42.5989 5.78129 41.9931 5.16345C41.3874 4.54562 40.5662 4.19807 39.7096 4.19704V4.19704ZM17.4132 5.90292C17.6349 5.90279 17.8475 5.81289 18.0042 5.65296C18.161 5.49303 18.2492 5.27615 18.2493 5.04998C18.2493 4.17039 18.5918 3.32683 19.2015 2.70487C19.8112 2.08291 20.6381 1.7335 21.5003 1.7335C22.3625 1.7335 23.1895 2.08291 23.7992 2.70487C24.4088 3.32683 24.7514 4.17039 24.7514 5.04998C24.7514 5.27619 24.8394 5.49314 24.9963 5.6531C25.1531 5.81306 25.3657 5.90292 25.5875 5.90292H28.3505C28.5088 5.90305 28.6606 5.96728 28.7726 6.08151C28.8846 6.19573 28.9476 6.35062 28.9477 6.51216V9.61053H14.053V6.51216C14.053 6.35058 14.1159 6.19562 14.2279 6.08136C14.3399 5.96711 14.4918 5.90292 14.6502 5.90292H17.4132ZM35.9619 11.3164V50.8529H7.03823V11.3164H35.9619ZM41.2686 54.6765C41.2681 55.0981 41.1037 55.5023 40.8114 55.8004C40.5191 56.0984 40.1229 56.266 39.7096 56.2664H3.29054C2.87727 56.266 2.48102 56.0984 2.18875 55.8004C1.89648 55.5023 1.73205 55.0981 1.73155 54.6765V7.4928C1.73218 7.07125 1.89665 6.66716 2.18889 6.36913C2.48114 6.07109 2.8773 5.90344 3.29054 5.90292H12.4701C12.4132 6.1009 12.3829 6.30586 12.3803 6.51216V9.61053H6.20211C5.9804 9.61066 5.76781 9.70057 5.61103 9.8605C5.45426 10.0204 5.36613 10.2373 5.366 10.4635V51.7059C5.366 51.8179 5.38763 51.9288 5.42965 52.0323C5.47167 52.1358 5.53325 52.2298 5.61089 52.309C5.68853 52.3882 5.78071 52.451 5.88215 52.4939C5.98359 52.5367 6.09232 52.5588 6.20211 52.5588H36.798C36.9079 52.5589 37.0166 52.5369 37.1181 52.494C37.2196 52.4512 37.3118 52.3883 37.3894 52.3091C37.4671 52.2299 37.5286 52.1359 37.5706 52.0323C37.6126 51.9288 37.6342 51.8179 37.6342 51.7059V10.4635C37.6342 10.2373 37.5461 10.0203 37.3893 9.86035C37.2325 9.7004 37.0198 9.61053 36.798 9.61053H30.6199V6.51216C30.617 6.30588 30.5868 6.10095 30.5301 5.90292H39.7096C40.1229 5.90344 40.519 6.07109 40.8113 6.36913C41.1035 6.66716 41.268 7.07125 41.2686 7.4928V54.6765Z" fill="#7379F8"></path>
    <path d="M11.29 21.2476H15.9373C16.159 21.2474 16.3716 21.1575 16.5284 20.9976C16.6852 20.8377 16.7733 20.6208 16.7734 20.3946V15.6537C16.7733 15.4275 16.6852 15.2107 16.5284 15.0507C16.3716 14.8908 16.159 14.8009 15.9373 14.8008H11.29C11.0683 14.8009 10.8557 14.8908 10.6989 15.0507C10.5421 15.2107 10.454 15.4275 10.4539 15.6537V20.3946C10.454 20.6208 10.5421 20.8377 10.6989 20.9976C10.8557 21.1575 11.0683 21.2474 11.29 21.2476V21.2476ZM12.1261 16.5067H15.1012V19.5417H12.1261V16.5067Z" fill="#7379F8"></path>
    <path d="M11.29 47.3686H15.9373C16.159 47.3685 16.3716 47.2786 16.5284 47.1187C16.6852 46.9588 16.7733 46.7419 16.7734 46.5157V41.7753C16.7733 41.5491 16.6852 41.3323 16.5284 41.1723C16.3716 41.0124 16.159 40.9225 15.9373 40.9224H11.29C11.0683 40.9225 10.8557 41.0124 10.6989 41.1723C10.5421 41.3323 10.454 41.5491 10.4539 41.7753V46.5157C10.454 46.7419 10.5421 46.9588 10.6989 47.1187C10.8557 47.2786 11.0683 47.3685 11.29 47.3686V47.3686ZM12.1261 42.6282H15.1012V45.6628H12.1261V42.6282Z" fill="#7379F8"></path>
    <path d="M11.29 38.6616H15.9373C16.159 38.6615 16.3716 38.5716 16.5284 38.4117C16.6852 38.2517 16.7733 38.0349 16.7734 37.8087V33.0678C16.7733 32.8416 16.6852 32.6247 16.5284 32.4648C16.3716 32.3049 16.159 32.215 15.9373 32.2148H11.29C11.0683 32.215 10.8557 32.3049 10.6989 32.4648C10.5421 32.6247 10.454 32.8416 10.4539 33.0678V37.8087C10.454 38.0349 10.5421 38.2517 10.6989 38.4117C10.8557 38.5716 11.0683 38.6615 11.29 38.6616V38.6616ZM12.1261 33.9227H15.1012V36.9577H12.1261V33.9227Z" fill="#7379F8"></path>
    <path d="M11.29 29.9543H15.9373C16.159 29.9542 16.3716 29.8643 16.5284 29.7044C16.6852 29.5444 16.7733 29.3276 16.7734 29.1014V24.361C16.7733 24.1348 16.6852 23.9179 16.5284 23.758C16.3716 23.5981 16.159 23.5082 15.9373 23.5081H11.29C11.0683 23.5082 10.8557 23.5981 10.6989 23.758C10.5421 23.9179 10.454 24.1348 10.4539 24.361V29.1014C10.454 29.3276 10.5421 29.5444 10.6989 29.7044C10.8557 29.8643 11.0683 29.9542 11.29 29.9543V29.9543ZM12.1261 25.2139H15.1012V28.2485H12.1261V25.2139Z" fill="#7379F8"></path>
    <path d="M19.8278 44.9984H31.7101C31.9319 44.9984 32.1446 44.9085 32.3014 44.7485C32.4582 44.5886 32.5463 44.3716 32.5463 44.1454C32.5463 43.9192 32.4582 43.7023 32.3014 43.5423C32.1446 43.3823 31.9319 43.2925 31.7101 43.2925H19.8278C19.6061 43.2925 19.3934 43.3823 19.2366 43.5423C19.0798 43.7023 18.9917 43.9192 18.9917 44.1454C18.9917 44.3716 19.0798 44.5886 19.2366 44.7485C19.3934 44.9085 19.6061 44.9984 19.8278 44.9984V44.9984Z" fill="#7379F8"></path>
    <path d="M19.8278 36.2911H31.7101C31.9319 36.2911 32.1446 36.2012 32.3014 36.0413C32.4582 35.8813 32.5463 35.6644 32.5463 35.4381C32.5463 35.2119 32.4582 34.995 32.3014 34.835C32.1446 34.6751 31.9319 34.5852 31.7101 34.5852H19.8278C19.6061 34.5852 19.3934 34.6751 19.2366 34.835C19.0798 34.995 18.9917 35.2119 18.9917 35.4381C18.9917 35.6644 19.0798 35.8813 19.2366 36.0413C19.3934 36.2012 19.6061 36.2911 19.8278 36.2911V36.2911Z" fill="#7379F8"></path>
    <path d="M19.8278 27.5867H31.7101C31.9319 27.5867 32.1446 27.4969 32.3014 27.3369C32.4582 27.177 32.5463 26.96 32.5463 26.7338C32.5463 26.5076 32.4582 26.2906 32.3014 26.1307C32.1446 25.9707 31.9319 25.8809 31.7101 25.8809H19.8278C19.6061 25.8809 19.3934 25.9707 19.2366 26.1307C19.0798 26.2906 18.9917 26.5076 18.9917 26.7338C18.9917 26.96 19.0798 27.177 19.2366 27.3369C19.3934 27.4969 19.6061 27.5867 19.8278 27.5867V27.5867Z" fill="#7379F8"></path>
    <path d="M19.8278 18.8768H31.7101C31.9319 18.8768 32.1446 18.7869 32.3014 18.627C32.4582 18.467 32.5463 18.2501 32.5463 18.0238C32.5463 17.7976 32.4582 17.5807 32.3014 17.4207C32.1446 17.2608 31.9319 17.1709 31.7101 17.1709H19.8278C19.6061 17.1709 19.3934 17.2608 19.2366 17.4207C19.0798 17.5807 18.9917 17.7976 18.9917 18.0238C18.9917 18.2501 19.0798 18.467 19.2366 18.627C19.3934 18.7869 19.6061 18.8768 19.8278 18.8768V18.8768Z" fill="#7379F8"></path>
  </symbol>
  <symbol fill="none" xmlns="http://www.w3.org/2000/svg" viewBox="0 0 58 58" id="bag-report">
    <path d="M8.89579 12.8132H8.87167C8.20467 12.8132 7.67542 13.3546 7.67542 14.0216C7.67542 14.6886 8.22879 15.23 8.89579 15.23C9.56279 15.23 10.1042 14.6886 10.1042 14.0216C10.1042 13.3546 9.56279 12.8132 8.89579 12.8132Z" fill="#7379F8"></path>
    <path d="M55.5834 24.1666H53.6427L56.7409 13.6324C56.9173 13.0379 56.6128 12.4071 56.04 12.1728C55.4649 11.9431 54.8099 12.1751 54.5175 12.7214C54.0511 13.5961 52.0599 14.5 49.5416 14.5C46.7745 14.5 44.7083 13.224 44.7083 12.0834V4.83337C44.7084 2.16775 42.5406 0 39.875 0C37.2094 0 35.0416 2.16775 35.0416 4.83337V6.04174C35.0416 6.70863 35.583 7.25 36.25 7.25C36.917 7.25 37.4584 6.70863 37.4584 6.04163V4.83337C37.4584 3.50175 38.5435 2.41674 39.875 2.41674C41.2065 2.41674 42.2916 3.50186 42.2916 4.83337V12.0834C42.2916 13.224 40.2254 14.5 37.4583 14.5C34.9401 14.5 32.9487 13.5961 32.4799 12.7214C32.1899 12.1752 31.5253 11.948 30.9574 12.1728C30.3846 12.4071 30.0801 13.0379 30.2565 13.6324L33.3546 24.1666H29.314L21.5784 6.96963C21.1796 6.08751 20.4643 5.41088 19.558 5.06775C18.6518 4.72462 17.6681 4.756 16.7861 5.15237L5.76374 10.1089C3.94399 10.9281 3.12712 13.079 3.94637 14.9011L8.11274 24.1666H2.41662C1.74962 24.1666 1.20825 24.708 1.20825 25.375V47.125C1.20825 53.1208 6.0875 58 12.0833 58H45.9166C51.9124 58 56.7916 53.1208 56.7916 47.125V25.375C56.7916 24.708 56.2504 24.1666 55.5834 24.1666ZM44.7084 15.7035C45.982 16.4575 47.6664 16.9166 49.5417 16.9166C50.8177 16.9166 52.2097 16.7088 53.4495 16.2714L51.1271 24.1666H44.7085V15.7035H44.7084ZM37.4584 16.9166C39.3337 16.9166 41.0181 16.4575 42.2917 15.7035V24.1666H35.8755L33.5531 16.2714C34.7904 16.7089 36.1824 16.9166 37.4584 16.9166ZM6.15037 13.9128C5.87487 13.3061 6.14799 12.5884 6.7545 12.3154L17.7769 7.35875C18.0718 7.22587 18.4004 7.21613 18.7 7.32975C18.9996 7.44337 19.2389 7.66812 19.3719 7.96288L26.6605 24.1666H10.7614L6.15037 13.9128ZM54.375 47.125C54.375 51.7891 50.5809 55.5834 45.9166 55.5834H12.0834C7.41912 55.5834 3.62499 51.7891 3.62499 47.125V26.5834H54.375V47.125Z" fill="#7379F8"></path>
    <path d="M24.0845 38.077C24.7878 38.1181 25.3267 37.6203 25.3727 36.9533C25.491 35.2036 27.0837 33.8358 28.9977 33.8358C30.9987 33.8358 32.625 35.3269 32.625 37.1586C32.625 39.3215 30.7787 40.0393 28.971 40.455L28.7028 40.5203C28.1687 40.6556 27.7965 41.1365 27.7965 41.6875L27.7942 44.7084C27.7942 45.373 28.333 45.9167 29.0025 45.9167C29.6695 45.9167 30.2109 45.3754 30.2109 44.7109L30.2133 42.6301C33.4202 41.7117 35.0442 39.8727 35.0442 37.1564C35.0442 33.9905 32.3327 31.4167 29 31.4167C25.8197 31.4167 23.1662 33.7754 22.9608 36.789C22.9149 37.4559 23.4199 38.0311 24.0845 38.077Z" fill="#7379F8"></path>
    <path d="M28.1541 48.696C27.9125 48.9135 27.7916 49.2276 27.7916 49.5419C27.7916 49.856 27.9125 50.1702 28.1541 50.3877C28.3716 50.6294 28.6858 50.7502 29 50.7502C29.3141 50.7502 29.6284 50.6294 29.8459 50.3877C30.0875 50.1702 30.2084 49.8561 30.2084 49.5419C30.2084 49.2277 30.0875 48.9135 29.8459 48.696C29.3866 48.2368 28.6134 48.2368 28.1541 48.696Z" fill="#7379F8"></path>
  </symbol>
  <symbol fill="none" xmlns="http://www.w3.org/2000/svg" viewBox="0 0 58 58" id="sales-report">
    <g clip-path="url(#clip0_1:4106)">
      <path d="M19.3851 38.8989H16.7361V57.9999H19.3851V38.8989Z" fill="#7379F8"></path>
      <path d="M30.3995 35.6924H27.7505V58.0001H30.3995V35.6924Z" fill="#7379F8"></path>
      <path d="M8.3707 50.8894H5.86108V58H8.3707V50.8894Z" fill="#7379F8"></path>
      <path d="M41.2746 27.6057H38.6256V57.9999H41.2746V27.6057Z" fill="#7379F8"></path>
      <path d="M52.1496 20.3557H49.64V57.9999H52.1496V20.3557Z" fill="#7379F8"></path>
      <path d="M55.7607 0.376442C55.4819 0.139423 55.1333 0 54.7569 0H45.2064C44.4396 0 43.8122 0.627404 43.8122 1.39423C43.8122 2.16106 44.4396 2.78846 45.2064 2.78846L51.3689 2.77452L36.2972 17.8601L31.0131 12.5481C30.7482 12.2832 30.3997 12.1298 30.0232 12.1159C29.6468 12.1298 29.2982 12.2832 29.0333 12.5481L2.26408 39.3452C1.70638 39.875 1.69244 40.7673 2.22225 41.325C2.75206 41.8827 3.64437 41.8966 4.20206 41.3668C4.216 41.3529 4.22994 41.3389 4.24388 41.3389L30.0372 15.5457L35.3213 20.8159C35.5862 21.0668 35.9347 21.2062 36.3112 21.2062C36.6737 21.2062 37.0362 21.0668 37.3011 20.8159L53.3764 4.74038L53.3625 10.8889C53.3625 11.6558 53.976 12.2692 54.7428 12.2692H54.7567C55.5236 12.2832 56.137 11.6697 56.151 10.9029C56.151 10.9029 56.151 10.9029 56.151 10.8889L56.1649 1.3524C56.165 0.989904 56.0117 0.641346 55.7607 0.376442Z" fill="#7379F8"></path>
    </g>
    <defs>
      <clipPath id="clip0_1:4106">
        <rect width="58" height="58" fill="white"></rect>
      </clipPath>
    </defs>
  </symbol>
   <symbol fill="none" xmlns="http://www.w3.org/2000/svg" viewBox="0 0 35 35" id="telegram">
    <path d="M17.5 0.546875C8.13422 0.546875 0.546875 8.13531 0.546875 17.5C0.546875 26.8647 8.13531 34.4531 17.5 34.4531C26.8658 34.4531 34.4531 26.8647 34.4531 17.5C34.4531 8.13531 26.8647 0.546875 17.5 0.546875ZM25.8267 12.1614L23.0442 25.2733C22.8386 26.203 22.2852 26.4283 21.513 25.9908L17.2747 22.867L15.2305 24.8358C15.0052 25.0611 14.8138 25.2525 14.3763 25.2525L14.677 20.9387L22.5312 13.8425C22.8736 13.5417 22.4558 13.3711 22.0041 13.6719L12.297 19.7827L8.11344 18.4767C7.20453 18.1902 7.18375 17.5678 8.30484 17.1303L24.6498 10.827C25.4089 10.5536 26.0717 11.0119 25.8256 12.1603L25.8267 12.1614Z" fill="#FF7B1B"></path>
  </symbol>
  <symbol fill="none" xmlns="http://www.w3.org/2000/svg" viewBox="0 0 35 35" id="facebook">
    <path d="M17.5 0.699951C8.22148 0.699951 0.699982 8.22145 0.699982 17.5C0.699982 26.7785 8.22148 34.3 17.5 34.3C26.7785 34.3 34.3 26.7785 34.3 17.5C34.3 8.22145 26.7785 0.699951 17.5 0.699951ZM21.4795 12.3095H18.9542C18.655 12.3095 18.3225 12.7032 18.3225 13.2265V15.05H21.4812L21.0035 17.6505H18.3225V25.4572H15.3422V17.6505H12.6385V15.05H15.3422V13.5205C15.3422 11.326 16.8647 9.5427 18.9542 9.5427H21.4795V12.3095Z" fill="#FF7B1B"></path>
  </symbol>
  <symbol fill="none" xmlns="http://www.w3.org/2000/svg" viewBox="0 0 35 35" id="youtube">
    <path d="M20.3052 17.2077L16.3747 15.3737C16.0317 15.2145 15.75 15.393 15.75 15.7727V19.2272C15.75 19.607 16.0317 19.7855 16.3747 19.6262L20.3035 17.7922C20.6482 17.6312 20.6482 17.3687 20.3052 17.2077ZM17.5 0.699951C8.22148 0.699951 0.699982 8.22145 0.699982 17.5C0.699982 26.7785 8.22148 34.3 17.5 34.3C26.7785 34.3 34.3 26.7785 34.3 17.5C34.3 8.22145 26.7785 0.699951 17.5 0.699951ZM17.5 24.325C8.90048 24.325 8.74998 23.5497 8.74998 17.5C8.74998 11.4502 8.90048 10.675 17.5 10.675C26.0995 10.675 26.25 11.4502 26.25 17.5C26.25 23.5497 26.0995 24.325 17.5 24.325Z" fill="#FF7B1B"></path>
  </symbol>
  <symbol fill="none" xmlns="http://www.w3.org/2000/svg" viewBox="0 0 35 35" id="tiktok">
    <path d="M17.5 0C7.83651 0 0 7.83651 0 17.5C0 27.1635 7.83651 35 17.5 35C27.1635 35 35 27.1635 35 17.5C35 7.83651 27.1635 0 17.5 0ZM26.2794 13.3898V15.7593C25.1621 15.7597 24.0764 15.5408 23.0526 15.1088C22.3942 14.8308 21.7808 14.4727 21.2198 14.0399L21.2366 21.3334C21.2296 22.9757 20.5798 24.5188 19.4038 25.6811C18.4468 26.6272 17.2341 27.2288 15.9197 27.4236C15.6108 27.4693 15.2965 27.4928 14.9786 27.4928C13.5716 27.4928 12.2358 27.037 11.1431 26.196C10.9374 26.0377 10.7408 25.866 10.5535 25.6811C9.27903 24.4215 8.62183 22.7142 8.7325 20.9182C8.81692 19.5511 9.36428 18.2473 10.2767 17.2254C11.484 15.8731 13.1729 15.1225 14.9786 15.1225C15.2965 15.1225 15.6108 15.1464 15.9197 15.1921V16.0682V18.5054C15.6268 18.4088 15.3141 18.3557 14.9884 18.3557C13.3386 18.3557 12.0039 19.7017 12.0286 21.3527C12.0442 22.409 12.6213 23.3324 13.4723 23.8414C13.8723 24.0807 14.3324 24.2289 14.8235 24.2558C15.2082 24.2769 15.5776 24.2233 15.9197 24.1104C17.0984 23.721 17.9487 22.6139 17.9487 21.3081L17.9526 16.424V7.50723H21.2158C21.219 7.83057 21.2518 8.14604 21.3127 8.45175C21.559 9.68912 22.2565 10.7626 23.2272 11.4945C24.0736 12.1329 25.1276 12.5113 26.27 12.5113C26.2707 12.5113 26.2801 12.5113 26.2793 12.5106V13.3898H26.2794Z" fill="#FF7B1B"></path>
</svg>