<?xml version="1.0" standalone="no"?>
<!DOCTYPE svg PUBLIC "-//W3C//DTD SVG 20010904//EN"
 "http://www.w3.org/TR/2001/REC-SVG-20010904/DTD/svg10.dtd">
<svg version="1.0" xmlns="http://www.w3.org/2000/svg"
 width="458.000000pt" height="458.000000pt" viewBox="0 0 458.000000 458.000000"
 preserveAspectRatio="xMidYMid meet">
<metadata>
Created by potrace 1.14, written by Peter Selinger 2001-2017
</metadata>
<g transform="translate(0.000000,458.000000) scale(0.100000,-0.100000)"
fill="#000000" stroke="none">
<path d="M2125 4569 c-530 -35 -1053 -273 -1437 -652 -372 -367 -608 -853
-668 -1376 -18 -154 -8 -495 19 -643 114 -626 464 -1160 992 -1514 210 -141
510 -269 754 -323 773 -170 1554 53 2111 604 371 367 587 803 665 1340 17 116
17 443 0 565 -72 527 -289 969 -656 1335 -475 474 -1105 710 -1780 664z m483
-1090 c409 -45 675 -314 769 -777 14 -69 18 -135 17 -322 0 -205 -3 -248 -23
-340 -59 -278 -168 -492 -321 -633 -113 -104 -226 -162 -388 -197 -80 -18
-131 -20 -649 -20 l-563 0 0 1150 0 1150 530 0 c314 0 570 -4 628 -11z"/>
<path d="M1920 2339 l0 -750 298 3 297 3 68 32 c206 98 326 366 327 733 0 346
-95 586 -268 674 -92 47 -168 56 -458 56 l-264 0 0 -751z"/>
</g>
</svg>
